<svg xmlns="http://www.w3.org/2000/svg"><style>:root svg:not(:target){display:none}</style><svg viewBox="0 0 52 56" fill="none" id="comfort"><path d="M4 4h48l-4 44-20 8-20-8-4-44Z" fill="#F0EBFF"></path><path fill-rule="evenodd" clip-rule="evenodd" d="M1 0h-1l.1 1 3.9 43 20 8 20-8 3.9-43 .1-1h-47Zm.1 1 .36 4h45.08l.37-4h-45.81Zm40.8 5h-35.8l.1 1.13-.5.05-.5.04-.11-1.22h-3.54l3.39 37.3 19.06 7.62 19.06-7.62 3.39-37.3h-3.54l-.1 1.22-.5-.04-.5-.05.1-1.13Zm-35.8 5.62-.5.04.39 4.45.5-.05.5-.04-.4-4.45-.5.05Zm.78 8.88-.5.05.4 4.44.5-.04.5-.05-.4-4.44-.5.04Zm.8 8.89-.5.04.4 4.45.5-.05.49-.04-.4-4.45-.5.05Zm.79 8.88-.5.05.2 2.22 1.98.8.18-.46.2-.46-1.42-.58-.15-1.61-.5.04Zm5.82 4.23-.19.46 3.96 1.62.2-.47.18-.46-3.96-1.61-.19.46Zm7.92 3.23-.19.46 1.98.81 1.98-.8-.19-.47-.19-.46-1.6.65-1.6-.65-.19.46Zm7.54-1.62.19.47 3.96-1.62-.2-.46-.18-.46-3.96 1.61.19.46Zm7.92-3.23.18.47 1.98-.81.2-2.22-.5-.05-.5-.04-.14 1.61-1.41.58.19.46Zm2.26-7.05.5.05.4-4.45-.5-.04-.5-.05-.4 4.45.5.04Zm.8-8.88.49.04.4-4.44-.5-.05-.5-.04-.4 4.44.5.05Zm.78-8.89.5.05.4-4.45-.5-.04-.5-.05-.4 4.45.5.04Z" fill="#7859CF"></path></svg><svg viewBox="0 0 42 56" fill="none" id="energy"><path fill-rule="evenodd" clip-rule="evenodd" d="m19.97 35.2 18.16-31.2-34.13 26.68 15.97 4.52Zm6.06-10.4-18.16 31.2 34.13-26.68-15.97-4.52Z" fill="#F0EBFF"></path><path fill-rule="evenodd" clip-rule="evenodd" d="m34.13 0-34.13 26.68 15.97 4.52-12.1 20.8 34.13-26.68-15.97-4.52 12.1-20.8Zm1.7 25.75-15.32-4.34 10.15-17.42-28.5 22.26 15.33 4.34-10.15 17.42 28.5-22.26Z" fill="#7859CF"></path></svg><svg viewBox="0 0 46 56" fill="none" id="leaf"><path fill-rule="evenodd" clip-rule="evenodd" d="M38.7 22.12c.78-6.56 1.5-12.77 7.3-18.12-26.5 0-34.15 8.13-38 14-8.54 13.04-.91 25.67.71 28.09a808.17 808.17 0 0 0-4.71 9.47l.88.44c.64-1.27 1.3-2.6 1.98-4l2.65-5.32c2.6.87 14.45 4.19 21.99-4.68 5.66-6.66 6.45-13.44 7.2-19.88Z" fill="#F0EBFF"></path><path fill-rule="evenodd" clip-rule="evenodd" d="M5.23 41.05c3.96-7.8 8.46-15.96 13.04-21.05l.73.66c-4.57 5.08-9.07 13.3-13.03 21.12a26.2 26.2 0 0 0 7.12 1.22c4.38.12 9.66-.96 13.65-5.65 5.46-6.42 6.22-12.94 6.98-19.4l.02-.13c.68-5.81 1.38-11.64 5.87-16.8-11.79.23-19.48 2.16-24.67 4.68a23.8 23.8 0 0 0-10.1 8.85 22.6 22.6 0 0 0-2.94 18.88 28.93 28.93 0 0 0 3.33 7.63Zm-.52 1.04c-1.62-2.42-9.25-15.05-.71-28.09 3.78-5.76 11.23-13.7 36.55-14h1.45a22 22 0 0 0-1.02 1c-4.87 5.12-5.55 10.96-6.27 17.12-.76 6.44-1.55 13.22-7.21 19.88-7.54 8.87-19.4 5.55-21.99 4.68l-2.65 5.32c-.68 1.4-1.34 2.73-1.98 4l-.88-.44 1.97-3.96 2.74-5.51Z" fill="#7859CF"></path></svg><svg viewBox="0 0 170 36" fill="none" id="logo"><path d="M142.94 17.24h4.2v6.96c-.96.69-2.07 1.22-3.32 1.58-1.24.37-2.5.56-3.74.56a10.1 10.1 0 0 1-4.75-1.1 8.41 8.41 0 0 1-4.51-7.64c0-1.68.4-3.18 1.2-4.51a8.2 8.2 0 0 1 3.33-3.1 10.17 10.17 0 0 1 4.83-1.13c1.56 0 2.97.27 4.22.8a8.14 8.14 0 0 1 3.12 2.28l-3.02 2.73a5.33 5.33 0 0 0-4.08-1.87 4.7 4.7 0 0 0-3.48 1.32 4.66 4.66 0 0 0-1.32 3.48c0 .93.2 1.76.6 2.5.4.72.96 1.28 1.68 1.7a5 5 0 0 0 2.47.6c.91 0 1.77-.18 2.57-.55v-4.61Zm16.16 9.1c-1.78 0-3.38-.38-4.8-1.13a8.58 8.58 0 0 1-3.34-3.12 8.53 8.53 0 0 1-1.2-4.49c0-1.66.4-3.16 1.2-4.49a8.58 8.58 0 0 1 3.34-3.12 10.12 10.12 0 0 1 4.8-1.13c1.78 0 3.37.38 4.78 1.13a8.37 8.37 0 0 1 4.56 7.61 8.4 8.4 0 0 1-4.56 7.6 9.9 9.9 0 0 1-4.78 1.14Zm0-3.94a4.34 4.34 0 0 0 3.94-2.28c.4-.74.6-1.58.6-2.52s-.2-1.78-.6-2.5a4.3 4.3 0 0 0-3.94-2.3 4.3 4.3 0 0 0-3.94 2.3c-.4.72-.6 1.56-.6 2.5s.2 1.78.6 2.52a4.34 4.34 0 0 0 3.94 2.28Z" fill="#333"></path><path fill-rule="evenodd" clip-rule="evenodd" d="M124 18c0 2.87-.6 5.59-1.66 8h-13.34c2.46-3.77 5-8.34 5-13a13 13 0 0 0-9.58-12.55c1.15-.3 2.35-.45 3.58-.45 8.84 0 16 8.06 16 18Zm-14-5a9 9 0 0 0-9-9c-6.65 0-9 8.5-9 14 0 9.94 7.16 18 16 18 4.74 0 9-2.32 11.93-6h-18.93l1.1-1.39c3.52-4.4 7.9-9.91 7.9-15.61Z" fill="#7859CF"></path><path d="M2.65 9.2h7.94c1.84 0 3.48.34 4.9 1.03a7.77 7.77 0 0 1 3.31 2.93 8.25 8.25 0 0 1 1.18 4.44 7.77 7.77 0 0 1-4.49 7.37 11.12 11.12 0 0 1-4.9 1.03h-7.94v-16.8Zm7.75 13c1.44 0 2.6-.4 3.46-1.22a4.39 4.39 0 0 0 1.32-3.38c0-1.44-.44-2.57-1.32-3.38a4.83 4.83 0 0 0-3.46-1.23h-3v9.22h3Zm19.9-.66h-2.59v4.46h-4.75v-16.8h7.68c1.52 0 2.84.26 3.96.77a5.77 5.77 0 0 1 2.6 2.16c.6.93.9 2.02.9 3.29a5.9 5.9 0 0 1-.86 3.19c-.56.9-1.37 1.6-2.43 2.11l3.63 5.28h-5.09l-3.05-4.46Zm3-6.12c0-.79-.25-1.4-.74-1.83-.5-.43-1.23-.65-2.2-.65h-2.65v4.92h2.64c.98 0 1.71-.2 2.2-.62.5-.43.75-1.04.75-1.82Zm7.9-6.22h4.76v16.8h-4.76v-16.8Zm24.6 0v16.8h-3.91l-7.42-8.95v8.95h-4.65v-16.8h3.9l7.43 8.95v-8.95h4.65Zm10.31 10.7-1.77 1.9v4.2h-4.7v-16.8h4.7v6.98l6.5-6.98h5.23l-6.86 7.44 7.22 9.36h-5.52l-4.8-6.1Z" fill="#333"></path></svg><svg viewBox="0 0 82 36" fill="none" id="logo@1x"><path d="M76.94 17.24h4.2v6.96c-.96.69-2.07 1.22-3.32 1.58-1.24.37-2.5.56-3.74.56a10.1 10.1 0 0 1-4.75-1.1 8.41 8.41 0 0 1-4.51-7.64c0-1.68.4-3.18 1.2-4.51a8.2 8.2 0 0 1 3.33-3.1 10.17 10.17 0 0 1 4.83-1.13c1.56 0 2.97.27 4.22.8a8.14 8.14 0 0 1 3.12 2.28l-3.02 2.73a5.33 5.33 0 0 0-4.08-1.87 4.7 4.7 0 0 0-3.48 1.32 4.66 4.66 0 0 0-1.32 3.48c0 .93.2 1.76.6 2.5.4.72.96 1.28 1.68 1.7a5 5 0 0 0 2.47.6c.91 0 1.77-.18 2.57-.55v-4.61Z" fill="#333"></path><path fill-rule="evenodd" clip-rule="evenodd" d="M58 18c0 2.87-.6 5.59-1.66 8h-13.34c2.46-3.77 5-8.34 5-13a13 13 0 0 0-9.58-12.55c1.15-.3 2.35-.45 3.58-.45 8.84 0 16 8.06 16 18Zm-14-5a9 9 0 0 0-9-9c-6.65 0-9 8.5-9 14 0 9.94 7.16 18 16 18 4.74 0 9-2.32 11.93-6h-18.93l1.1-1.39c3.52-4.4 7.9-9.91 7.9-15.61Z" fill="#7859CF"></path><path d="M1.85 9.2h7.95c1.84 0 3.47.34 4.9 1.03a7.77 7.77 0 0 1 3.3 2.93 8.25 8.25 0 0 1 1.18 4.44 7.77 7.77 0 0 1-4.49 7.37 11.12 11.12 0 0 1-4.9 1.03h-7.94v-16.8Zm7.75 13c1.44 0 2.6-.4 3.46-1.22a4.39 4.39 0 0 0 1.32-3.38c0-1.44-.44-2.57-1.32-3.38a4.83 4.83 0 0 0-3.46-1.23h-3v9.22h3Z" fill="#333"></path></svg><svg viewBox="0 0 32 36" fill="none" id="logo@2x"><path fill-rule="evenodd" clip-rule="evenodd" d="M32 18c0 2.87-.6 5.59-1.66 8h-13.34c2.46-3.77 5-8.34 5-13a13 13 0 0 0-9.58-12.55c1.15-.3 2.35-.45 3.58-.45 8.84 0 16 8.06 16 18Zm-14-5a9 9 0 0 0-9-9c-6.65 0-9 8.5-9 14 0 9.94 7.16 18 16 18 4.74 0 9-2.32 11.93-6h-18.93l1.1-1.39c3.52-4.4 7.9-9.91 7.9-15.61Z" fill="#7859CF"></path></svg><svg viewBox="0 0 16 12" fill="none" id="menu"><path fill-rule="evenodd" clip-rule="evenodd" d="M0 0h16v1.5h-16v-1.5Zm0 5.25h16v1.5h-16v-1.5Zm16 5.25h-16v1.5h16v-1.5Z" fill="#333"></path></svg><svg viewBox="0 0 11 20" fill="none" id="stroke-1"><path fill-rule="evenodd" clip-rule="evenodd" d="m9.72 0 1.28 1.32-8.43 8.68 8.43 8.68-1.28 1.32-9.72-10 9.72-10Z" fill="#7859CF"></path></svg><svg viewBox="0 0 11 20" fill="none" id="stroke"><path fill-rule="evenodd" clip-rule="evenodd" d="m1.28 0-1.28 1.32 8.43 8.68-8.43 8.68 1.28 1.32 9.72-10-9.72-10Z" fill="#7859CF"></path></svg><svg viewBox="0 0 50 56" fill="none" id="time"><path fill-rule="evenodd" clip-rule="evenodd" d="M23 4h8v3h-3v3.02c3.82.16 7.39 1.26 10.5 3.06 1.85-1.93 6.26.17 4.76 3.66l-.1-.1a23 23 0 1 1-32.43.1c-2.02-3.03 2.59-6.16 4.77-3.66 3.11-1.8 6.68-2.9 10.5-3.06v-3.02h-3v-3Z" fill="#F0EBFF"></path><path fill-rule="evenodd" clip-rule="evenodd" d="M26 1h-6v1h6v-1Zm-2 2h3v-3h-8v3h3v3.02a22.87 22.87 0 0 0-9.6 2.57l-.15-.17c-1.53-1.76-3.85-1.44-5.3-.4a4.14 4.14 0 0 0-1.6 2.26c-.26.96-.1 2.02.56 3.01l.12.19a23 23 0 1 0 33.99.05l.16-.4c.47-1.08.5-2.13.17-3.04-.32-.9-.95-1.6-1.68-2.06-1.41-.89-3.54-1.06-4.9.36l-.17.2a22.87 22.87 0 0 0-9.6-2.57v-3.02Zm-1 4c-3.86 0-7.49 1-10.64 2.74l-.36.2a22 22 0 1 0 22 0l-.36-.2a21.9 21.9 0 0 0-10.64-2.74Zm-11.5 2.08a23.08 23.08 0 0 0-4.76 3.66 2.98 2.98 0 0 1-.44-.98c-.55-2.31 2.31-4.31 4.35-3.34.3.15.6.37.85.66Zm23 0a23.08 23.08 0 0 1 4.76 3.66c.17-.4.26-.77.3-1.12.2-2.33-2.32-3.74-4.1-3.14-.36.12-.69.32-.96.6Zm-11.5 21.92a2 2 0 0 0 .86-3.8l-.91-.2a2 2 0 0 0 .05 4Zm-.64-4.93-1.34-4.94-.04-.14.05-.15 1.5-4.5.47-1.42.47 1.42 1.5 4.5.05.15-.04.14-1.34 4.94.37.1 7.55-13.42.88.5-7.55 13.42a3 3 0 1 1-2.53-.6Zm-.34-5.06.98 3.59.98-3.59-.98-2.93-.98 2.93Z" fill="#7859CF"></path></svg><svg fill="none" viewBox="0 0 16 16" id="union-hover"><path fill-rule="evenodd" clip-rule="evenodd" d="m5.66 3.88.23 2.79h4.22l.23-2.8a2.35 2.35 0 1 0-4.68 0Zm5.78 2.79.23-2.68a3.68 3.68 0 1 0-7.34 0l.23 2.68h-4.56l.19 1.33.82 5.71a2.67 2.67 0 0 0 2.64 2.29h8.7c1.33 0 2.46-.98 2.64-2.29l.82-5.71.19-1.33h-4.55Zm-.1 1.33h-.06l-.22 2.67h3.02l.38-2.67h-3.13Zm-1.4 0h-3.88l.22 2.67h3.44l.22-2.67Zm-5.22 0h-3.18l.38 2.67h3.02l-.22-2.67Zm1.9 6.67-.23-2.67h3.22l-.22 2.67h-2.78Zm4.33-2.67-.23 2.67h1.63c.67 0 1.23-.5 1.32-1.15l.22-1.52h-2.94Zm-5.9 0 .23 2.67h-1.63c-.67 0-1.23-.5-1.32-1.15l-.22-1.52h2.94Z" fill="#7859CF"></path></svg><svg viewBox="0 0 16 16" fill="none" id="union"><path fill-rule="evenodd" clip-rule="evenodd" d="m5.66 3.88.23 2.79h4.22l.23-2.8a2.35 2.35 0 1 0-4.68 0Zm5.78 2.79.23-2.68a3.68 3.68 0 1 0-7.34 0l.23 2.68h-4.56l.19 1.33.82 5.71a2.67 2.67 0 0 0 2.64 2.29h8.7c1.33 0 2.46-.98 2.64-2.29l.82-5.71.19-1.33h-4.55Zm-.1 1.33h-.06l-.22 2.67h3.02l.38-2.67h-3.13Zm-1.4 0h-3.88l.22 2.67h3.44l.22-2.67Zm-5.22 0h-3.18l.38 2.67h3.02l-.22-2.67Zm1.9 6.67-.23-2.67h3.22l-.22 2.67h-2.78Zm4.33-2.67-.23 2.67h1.63c.67 0 1.23-.5 1.32-1.15l.22-1.52h-2.94Zm-5.9 0 .23 2.67h-1.63c-.67 0-1.23-.5-1.32-1.15l-.22-1.52h2.94Z" fill="#333"></path></svg><svg fill="none" viewBox="0 0 16 16" id="user-hover"><path fill-rule="evenodd" clip-rule="evenodd" d="M10.67 4a2.67 2.67 0 1 1-5.34 0 2.67 2.67 0 0 1 5.34 0Zm1.33 0a4 4 0 1 1-8 0 4 4 0 0 1 8 0Zm-8.8 8.31a7.55 7.55 0 0 1 4.8-1.64c1.84 0 3.56.6 4.8 1.64a4.83 4.83 0 0 1 1.87 3.69h1.33c0-1.77-.84-3.46-2.34-4.71a8.88 8.88 0 0 0-5.66-1.96c-2.12 0-4.16.7-5.66 1.96a6.16 6.16 0 0 0-2.34 4.71h1.33c0-1.33.63-2.66 1.87-3.69Z" fill="#7859CF"></path></svg><svg viewBox="0 0 16 16" fill="none" id="user"><path fill-rule="evenodd" clip-rule="evenodd" d="M10.67 4a2.67 2.67 0 1 1-5.34 0 2.67 2.67 0 0 1 5.34 0Zm1.33 0a4 4 0 1 1-8 0 4 4 0 0 1 8 0Zm-8.8 8.31a7.55 7.55 0 0 1 4.8-1.64c1.84 0 3.56.6 4.8 1.64a4.83 4.83 0 0 1 1.87 3.69h1.33c0-1.77-.84-3.46-2.34-4.71a8.88 8.88 0 0 0-5.66-1.96c-2.12 0-4.16.7-5.66 1.96a6.16 6.16 0 0 0-2.34 4.71h1.33c0-1.33.63-2.66 1.87-3.69Z" fill="#333"></path></svg></svg>